# xmcd
#
# Track frame offsets: 
#        150
#        13197
#        27609
#        41962
#        57409
#        72207
#        87061
#        101606
#        115813
#        130144
#        145897
#        160687
#        175269
#        190105
#        203070
#        217240
#        231934
#        248739
#        262332
#        276689
#        289856
#        303963
#
# Disc length: 4231 seconds
#
# Revision: 2
# Processed by: cddbd v1.5.2PL0 Copyright (c) Steve Scherf et al.
# Submitted via: ExactAudioCopy v0.99pb5
#
DISCID=57108516
DTITLE=Bessie Smith - The story of the blues, Chapter 1 | CD2
DYEAR=2004
DGENRE=Blues
TTITLE0=I'm going back to my used to be
TTITLE1=My sweet went away
TTITLE2=Whoa, Tillie, take your time
TTITLE3=Any woman's blues
TTITLE4=Chicago bound blues
TTITLE5=Mistreating Daddy
TTITLE6=Frosty morning blues
TTITLE7=Easy come easy go blues
TTITLE8=Eavesdropper's blues
TTITLE9=Haunted house blues
TTITLE10=Sorrowful blues
TTITLE11=Rocking chair blues
TTITLE12=Ticket agent, ease your window down
TTITLE13=Boweavil blues
TTITLE14=Hateful blues
TTITLE15=Pinchbacks. Take 'em away
TTITLE16=Nashvile woman's blues
TTITLE17=Sweet mistreater
TTITLE18=Mean old bedbug blues
TTITLE19=Blue spirit blues
TTITLE20=Black Mountain blues
TTITLE21=The house blues
EXTD=
EXTT0=
EXTT1=
EXTT2=
EXTT3=
EXTT4=
EXTT5=
EXTT6=
EXTT7=
EXTT8=
EXTT9=
EXTT10=
EXTT11=
EXTT12=
EXTT13=
EXTT14=
EXTT15=
EXTT16=
EXTT17=
EXTT18=
EXTT19=
EXTT20=
EXTT21=
PLAYORDER=
